<?xml version="1.0" encoding="UTF-8"?>
<svg xmlns="http://www.w3.org/2000/svg" xmlns:xlink="http://www.w3.org/1999/xlink" width="400px" height="400px" viewBox="0 0 100 100" version="1.1">
<g id="surface1">
<path style=" stroke:none;fill-rule:nonzero;fill:rgb(98.431373%,98.431373%,98.431373%);fill-opacity:1;" d="M 46.933594 19.617188 C 44.777344 21.535156 44.164062 24.09375 44.882812 28.199219 C 45.121094 29.53125 45.308594 30.945312 45.308594 31.316406 C 45.308594 32.328125 44.191406 33.316406 43.042969 33.316406 C 41.871094 33.316406 41.125 32.597656 40.910156 31.261719 C 40.804688 30.703125 40.699219 30.0625 40.671875 29.851562 C 40.617188 29.636719 40.324219 30.039062 39.980469 30.785156 C 39.125 32.597656 38.914062 36.40625 39.550781 38.328125 C 40.457031 40.992188 42.644531 43.203125 43.816406 42.589844 C 44.136719 42.429688 44.402344 42.269531 44.457031 42.242188 C 44.484375 42.21875 44.214844 41.578125 43.84375 40.832031 C 43.46875 40.058594 43.097656 38.832031 43.015625 38.058594 C 42.910156 36.648438 42.910156 36.648438 43.285156 37.472656 C 43.496094 37.925781 44.082031 38.644531 44.535156 39.046875 C 45.734375 40.03125 46.988281 39.84375 48.160156 38.484375 C 49.46875 36.992188 49.679688 33.769531 48.640625 31.261719 C 48.082031 29.957031 48.402344 29.796875 49.359375 30.917969 C 50.691406 32.488281 51.226562 33.847656 51.757812 36.914062 C 52.238281 39.820312 52.585938 40.511719 53.519531 40.511719 C 54.105469 40.511719 55.011719 39.980469 55.625 39.230469 L 56.238281 38.511719 L 56.238281 39.3125 C 56.238281 39.765625 55.996094 40.589844 55.730469 41.125 L 55.222656 42.109375 L 55.996094 42.539062 C 56.984375 43.015625 57.382812 42.832031 58.957031 41.070312 C 60.792969 39.019531 61.328125 36.0625 60.421875 33.050781 L 60.046875 31.851562 L 59.835938 33.050781 C 59.328125 36.0625 57.597656 37.046875 55.785156 35.367188 C 55.011719 34.675781 55.011719 33.636719 55.703125 31.398438 C 56.421875 29.132812 56.398438 27.132812 55.648438 25.828125 C 55.039062 24.734375 54.636719 24.839844 54.636719 26.039062 C 54.636719 26.386719 54.292969 27.027344 53.890625 27.480469 C 51.785156 29.824219 48.027344 27.851562 47.574219 24.148438 C 47.386719 22.761719 47.761719 20.097656 48.269531 19.109375 C 48.695312 18.363281 48.082031 18.578125 46.933594 19.617188 Z M 46.933594 19.617188 "/>
<path style=" stroke:none;fill-rule:nonzero;fill:rgb(98.431373%,98.431373%,98.431373%);fill-opacity:1;" d="M 46.242188 42.617188 C 43.042969 43.761719 41.019531 45.308594 39.417969 47.789062 C 38.03125 49.921875 37.578125 51.679688 37.605469 54.691406 C 37.632812 57.621094 37.820312 58.476562 38.484375 58.582031 C 38.886719 58.660156 38.9375 58.582031 38.78125 58.207031 C 38.351562 57.144531 38.328125 52.691406 38.726562 51.359375 C 39.179688 49.972656 40.75 47.175781 41.097656 47.175781 C 41.203125 47.175781 41.3125 47.816406 41.3125 48.5625 C 41.3125 51.226562 42.5625 55.0625 44.191406 57.410156 L 44.882812 58.421875 L 44.324219 58.902344 C 43.683594 59.410156 43.761719 59.703125 44.535156 59.703125 C 45.308594 59.703125 47.679688 57.621094 48.988281 55.785156 L 50.238281 54.050781 L 51.574219 54.183594 C 54.050781 54.449219 55.703125 54.929688 55.703125 55.355469 C 55.703125 55.835938 54.292969 58.234375 53.492188 59.089844 L 52.957031 59.703125 L 53.625 59.703125 C 54.34375 59.703125 55.039062 58.847656 56.210938 56.554688 L 56.796875 55.410156 L 58.101562 56.128906 C 58.820312 56.53125 59.863281 57.25 60.394531 57.757812 C 60.953125 58.234375 61.539062 58.609375 61.699219 58.527344 C 62.554688 58.207031 62.632812 52.984375 61.808594 50.585938 C 60.046875 45.363281 55.4375 42.085938 49.867188 42.109375 C 48.347656 42.136719 47.121094 42.296875 46.242188 42.617188 Z M 52.292969 43.203125 C 55.222656 43.816406 57.835938 45.523438 59.460938 47.894531 C 59.914062 48.535156 60.234375 49.148438 60.15625 49.199219 C 60.101562 49.28125 59.621094 49.09375 59.140625 48.800781 C 57.195312 47.65625 54.078125 46.855469 51.121094 46.695312 C 48.242188 46.5625 48.242188 46.5625 48.214844 45.867188 C 48.160156 44.910156 48.269531 43.363281 48.425781 43.097656 C 48.585938 42.804688 50.667969 42.855469 52.292969 43.203125 Z M 47.175781 44.695312 C 47.203125 46.933594 47.679688 49.441406 48.535156 51.652344 L 49.359375 53.839844 L 48.375 55.171875 C 47.839844 55.890625 47.042969 56.796875 46.589844 57.167969 L 45.734375 57.890625 L 45.257812 57.25 C 44.457031 56.238281 43.175781 53.519531 42.777344 51.972656 C 42.5625 51.171875 42.296875 49.519531 42.21875 48.320312 C 42.03125 46.1875 42.058594 46.136719 42.777344 45.46875 C 43.601562 44.695312 46.003906 43.46875 46.722656 43.445312 C 47.09375 43.445312 47.175781 43.683594 47.175781 44.695312 Z M 54.769531 48.132812 C 56.449219 48.5625 59.675781 50.027344 60.742188 50.878906 C 61.355469 51.332031 61.40625 51.625 61.515625 53.972656 C 61.59375 55.492188 61.515625 56.664062 61.378906 56.796875 C 61.195312 56.984375 60.582031 56.742188 59.566406 56.078125 C 57.410156 54.71875 55.382812 53.945312 52.558594 53.410156 C 49.894531 52.933594 50.027344 53.039062 49.015625 50.132812 C 48.292969 48.082031 48.347656 47.761719 49.386719 47.65625 C 50.691406 47.496094 53.011719 47.707031 54.769531 48.132812 Z M 54.769531 48.132812 "/>
<path style=" stroke:none;fill-rule:nonzero;fill:rgb(98.431373%,98.431373%,98.431373%);fill-opacity:1;" d="M 61.566406 42.429688 C 61.566406 42.671875 61.300781 43.070312 60.980469 43.285156 C 60.472656 43.65625 60.472656 43.710938 60.847656 43.871094 C 61.085938 43.949219 61.300781 44.269531 61.300781 44.535156 C 61.300781 45.097656 61.699219 45.203125 61.992188 44.75 C 62.074219 44.589844 62.367188 44.507812 62.605469 44.589844 C 62.953125 44.667969 63.058594 44.507812 63.058594 43.816406 C 63.058594 43.125 62.953125 42.910156 62.578125 42.910156 C 62.339844 42.910156 61.992188 42.695312 61.859375 42.429688 C 61.59375 42.003906 61.59375 42.003906 61.566406 42.429688 Z M 61.566406 42.429688 "/>
<path style=" stroke:none;fill-rule:nonzero;fill:rgb(98.431373%,98.431373%,98.431373%);fill-opacity:1;" d="M 37.980469 42.644531 C 37.898438 42.777344 37.578125 42.910156 37.285156 42.910156 C 36.859375 42.910156 36.808594 43.015625 36.992188 43.335938 C 37.125 43.578125 37.179688 44.003906 37.101562 44.296875 C 37.019531 44.644531 37.101562 44.75 37.394531 44.617188 C 37.605469 44.535156 37.875 44.589844 37.980469 44.75 C 38.21875 45.175781 38.644531 45.097656 38.644531 44.644531 C 38.644531 44.457031 38.859375 44.136719 39.125 43.976562 C 39.550781 43.710938 39.550781 43.710938 39.125 43.445312 C 38.859375 43.285156 38.644531 42.964844 38.644531 42.777344 C 38.644531 42.324219 38.21875 42.242188 37.980469 42.644531 Z M 37.980469 42.644531 "/>
<path style=" stroke:none;fill-rule:nonzero;fill:rgb(98.431373%,98.431373%,98.431373%);fill-opacity:1;" d="M 35.074219 45.46875 C 34.996094 45.683594 34.542969 46.003906 34.113281 46.160156 C 33.34375 46.429688 33.316406 46.457031 33.714844 46.910156 C 34.007812 47.226562 34.089844 47.601562 33.980469 47.972656 C 33.820312 48.507812 33.875 48.535156 34.59375 48.375 C 35.074219 48.292969 35.472656 48.320312 35.582031 48.480469 C 35.875 48.988281 36.246094 48.800781 36.246094 48.132812 C 36.246094 47.789062 36.433594 47.363281 36.671875 47.148438 C 37.046875 46.855469 37.019531 46.773438 36.40625 46.457031 C 36.035156 46.242188 35.714844 45.921875 35.714844 45.707031 C 35.714844 45.175781 35.261719 44.988281 35.074219 45.46875 Z M 35.074219 45.46875 "/>
<path style=" stroke:none;fill-rule:nonzero;fill:rgb(98.431373%,98.431373%,98.431373%);fill-opacity:1;" d="M 64.5 45.414062 C 64.5 45.65625 64.125 46.082031 63.699219 46.347656 C 62.980469 46.773438 62.925781 46.882812 63.300781 47.175781 C 63.511719 47.363281 63.699219 47.816406 63.699219 48.160156 C 63.699219 48.695312 63.78125 48.800781 64.179688 48.613281 C 64.417969 48.507812 64.980469 48.425781 65.40625 48.453125 C 66.042969 48.480469 66.125 48.402344 65.992188 47.921875 C 65.910156 47.574219 66.019531 47.148438 66.285156 46.855469 C 66.683594 46.402344 66.683594 46.375 66.257812 46.375 C 66.019531 46.375 65.511719 46.054688 65.164062 45.683594 C 64.660156 45.121094 64.5 45.070312 64.5 45.414062 Z M 64.5 45.414062 "/>
<path style=" stroke:none;fill-rule:nonzero;fill:rgb(98.431373%,98.431373%,98.431373%);fill-opacity:1;" d="M 34.222656 50.480469 C 34.140625 50.71875 33.820312 50.90625 33.503906 50.90625 C 32.996094 50.90625 32.996094 50.933594 33.449219 51.4375 C 33.6875 51.707031 33.847656 52.105469 33.769531 52.320312 C 33.660156 52.585938 33.875 52.664062 34.542969 52.664062 C 35.261719 52.636719 35.449219 52.53125 35.449219 52.078125 C 35.449219 51.785156 35.582031 51.414062 35.769531 51.226562 C 36.007812 50.984375 36.007812 50.90625 35.714844 50.90625 C 35.527344 50.90625 35.128906 50.71875 34.863281 50.480469 C 34.433594 50.054688 34.382812 50.054688 34.222656 50.480469 Z M 34.222656 50.480469 "/>
<path style=" stroke:none;fill-rule:nonzero;fill:rgb(98.431373%,98.431373%,98.431373%);fill-opacity:1;" d="M 65.164062 50.425781 C 65.058594 50.691406 64.710938 50.90625 64.417969 50.90625 C 63.992188 50.90625 63.9375 50.984375 64.179688 51.226562 C 64.367188 51.414062 64.5 51.785156 64.5 52.078125 C 64.5 52.53125 64.660156 52.636719 65.296875 52.636719 C 65.886719 52.636719 66.097656 52.503906 66.097656 52.183594 C 66.097656 51.945312 66.230469 51.652344 66.363281 51.574219 C 66.738281 51.359375 66.710938 50.90625 66.339844 50.90625 C 66.152344 50.90625 65.859375 50.691406 65.671875 50.425781 C 65.351562 50 65.324219 50 65.164062 50.425781 Z M 65.164062 50.425781 "/>
<path style=" stroke:none;fill-rule:nonzero;fill:rgb(98.431373%,98.431373%,98.431373%);fill-opacity:1;" d="M 24.652344 51.226562 C 24.761719 51.707031 25.054688 52.796875 25.320312 53.652344 C 25.90625 55.492188 26.039062 55.355469 22.761719 55.785156 L 20.441406 56.101562 L 23.878906 57.890625 C 25.773438 58.847656 27.933594 59.886719 28.703125 60.179688 C 30.195312 60.742188 30.410156 60.6875 30.785156 59.433594 C 31.398438 57.4375 31.902344 56.851562 33.714844 56.210938 C 34.675781 55.890625 35.367188 55.515625 35.261719 55.4375 C 35.128906 55.355469 33.980469 54.878906 32.648438 54.398438 C 30.117188 53.4375 27.238281 52.078125 25.507812 50.984375 L 24.46875 50.347656 Z M 24.652344 51.226562 "/>
<path style=" stroke:none;fill-rule:nonzero;fill:rgb(98.431373%,98.431373%,98.431373%);fill-opacity:1;" d="M 72.363281 52.132812 C 70.894531 52.90625 68.789062 53.863281 67.695312 54.265625 C 63.964844 55.625 64.125 55.410156 66.203125 56.210938 C 68.175781 56.957031 68.175781 56.957031 69.164062 59.222656 L 69.804688 60.714844 L 71.214844 60.179688 C 72.679688 59.648438 79.476562 56.210938 79.371094 56.101562 C 79.316406 56.050781 78.226562 55.890625 76.945312 55.730469 C 75.667969 55.570312 74.492188 55.382812 74.386719 55.332031 C 74.253906 55.25 74.359375 54.558594 74.625 53.785156 C 75.265625 51.8125 75.507812 50.640625 75.238281 50.667969 C 75.132812 50.691406 73.828125 51.332031 72.363281 52.132812 Z M 72.363281 52.132812 "/>
<path style=" stroke:none;fill-rule:nonzero;fill:rgb(98.431373%,98.431373%,98.431373%);fill-opacity:1;" d="M 34.703125 56.714844 L 33.582031 57.195312 L 34.460938 57.515625 C 35.660156 57.941406 35.632812 57.941406 35.953125 57.035156 C 36.273438 56.101562 36.21875 56.101562 34.703125 56.714844 Z M 34.703125 56.714844 "/>
<path style=" stroke:none;fill-rule:nonzero;fill:rgb(98.431373%,98.431373%,98.431373%);fill-opacity:1;" d="M 63.964844 56.609375 C 63.964844 56.796875 64.125 57.144531 64.3125 57.410156 C 64.605469 57.808594 64.738281 57.835938 65.539062 57.488281 L 66.445312 57.117188 L 65.191406 56.691406 C 64.257812 56.371094 63.964844 56.34375 63.964844 56.609375 Z M 63.964844 56.609375 "/>
<path style=" stroke:none;fill-rule:nonzero;fill:rgb(98.431373%,98.431373%,98.431373%);fill-opacity:1;" d="M 30.96875 61.085938 C 30.195312 62.898438 29.585938 64.5 29.585938 64.660156 C 29.585938 65.085938 35.554688 66.792969 39.472656 67.484375 C 42.351562 68.015625 43.683594 68.097656 49.972656 68.097656 C 56.210938 68.097656 57.597656 68.015625 60.394531 67.511719 C 63.539062 66.925781 69.269531 65.457031 70.148438 65.003906 C 70.523438 64.792969 70.414062 64.390625 69.191406 61.433594 C 68.417969 59.59375 67.722656 58.050781 67.671875 57.96875 C 67.589844 57.914062 66.417969 58.207031 65.03125 58.636719 C 55.996094 61.460938 44.351562 61.433594 34.808594 58.609375 C 33.796875 58.316406 32.835938 57.996094 32.648438 57.941406 C 32.460938 57.863281 31.824219 59.007812 30.96875 61.085938 Z M 65.21875 61.621094 C 65.03125 61.726562 64.683594 61.832031 64.445312 61.832031 C 64.179688 61.832031 63.964844 61.96875 63.964844 62.125 C 63.964844 62.3125 64.285156 62.394531 64.765625 62.3125 C 65.777344 62.152344 65.859375 62.792969 64.871094 63.167969 C 63.992188 63.511719 64.257812 63.914062 65.296875 63.753906 C 65.910156 63.671875 66.097656 63.753906 66.097656 64.074219 C 66.097656 64.3125 65.9375 64.5 65.726562 64.5 C 65.539062 64.5 65.003906 64.578125 64.578125 64.660156 C 63.804688 64.820312 63.753906 64.765625 63.460938 63.511719 C 63.273438 62.820312 63.085938 62.019531 63.007812 61.78125 C 62.898438 61.433594 63.140625 61.273438 64.019531 61.113281 C 65.164062 60.875 65.910156 61.195312 65.21875 61.621094 Z M 36.355469 61.195312 C 36.59375 61.273438 36.78125 61.59375 36.78125 61.859375 C 36.78125 62.285156 36.699219 62.339844 36.273438 62.101562 C 35.316406 61.59375 35.046875 61.832031 35.792969 62.5 C 36.648438 63.328125 36.726562 64.097656 35.953125 64.5 C 35.261719 64.871094 33.847656 64.390625 33.847656 63.78125 C 33.847656 63.511719 34.007812 63.433594 34.25 63.539062 C 34.460938 63.621094 34.835938 63.78125 35.046875 63.859375 C 35.660156 64.097656 35.527344 63.351562 34.914062 62.953125 C 34.410156 62.632812 34.195312 61.59375 34.566406 61.21875 C 34.78125 60.980469 35.792969 60.980469 36.355469 61.195312 Z M 39.925781 62.152344 C 40.324219 62.5 40.351562 63.484375 39.925781 63.914062 C 39.738281 64.097656 39.285156 64.230469 38.886719 64.230469 C 38.40625 64.230469 38.140625 64.390625 38.03125 64.765625 C 37.953125 65.136719 37.765625 65.246094 37.445312 65.136719 C 37.207031 65.03125 37.074219 64.792969 37.152344 64.605469 C 37.234375 64.390625 37.367188 63.621094 37.472656 62.875 L 37.660156 61.515625 L 38.621094 61.699219 C 39.152344 61.808594 39.738281 61.992188 39.925781 62.152344 Z M 62.367188 61.96875 C 62.367188 62.179688 62.179688 62.367188 61.96875 62.367188 C 61.539062 62.367188 61.566406 63.246094 62.019531 64.820312 C 62.101562 65.164062 61.992188 65.296875 61.621094 65.296875 C 61.195312 65.296875 61.0625 65.058594 60.925781 63.964844 C 60.792969 62.875 60.660156 62.632812 60.234375 62.632812 C 59.328125 62.632812 59.621094 61.886719 60.582031 61.753906 C 62.234375 61.566406 62.367188 61.566406 62.367188 61.96875 Z M 43.789062 62.953125 C 44.351562 63.621094 44.351562 64.019531 43.84375 65.03125 C 43.496094 65.726562 43.285156 65.832031 42.378906 65.832031 C 41.070312 65.832031 40.351562 64.980469 40.644531 63.699219 C 40.992188 62.125 42.722656 61.699219 43.789062 62.953125 Z M 58.980469 63.804688 C 59.648438 65.058594 59.808594 65.566406 59.542969 65.671875 C 59.355469 65.75 59.0625 65.617188 58.902344 65.40625 C 58.421875 64.84375 57.703125 64.953125 57.222656 65.617188 C 56.582031 66.578125 56.398438 65.992188 56.769531 64.230469 C 57.035156 62.925781 57.460938 62.207031 58.023438 62.101562 C 58.050781 62.101562 58.476562 62.875 58.980469 63.804688 Z M 47.28125 63.058594 C 47.789062 63.539062 47.816406 63.726562 47.414062 64.578125 C 47.203125 65.058594 47.203125 65.378906 47.414062 65.804688 C 47.679688 66.285156 47.65625 66.363281 47.226562 66.363281 C 46.960938 66.363281 46.589844 66.070312 46.429688 65.699219 C 46.054688 64.898438 45.574219 64.820312 45.574219 65.566406 C 45.574219 65.859375 45.390625 66.097656 45.175781 66.097656 C 44.882812 66.097656 44.777344 65.804688 44.777344 64.953125 C 44.777344 63.03125 44.988281 62.632812 45.976562 62.632812 C 46.480469 62.632812 47.066406 62.820312 47.28125 63.058594 Z M 50.90625 63.03125 C 50.90625 63.246094 50.71875 63.433594 50.53125 63.433594 C 50.238281 63.433594 50.105469 63.832031 50.054688 64.820312 C 50 65.910156 49.867188 66.257812 49.519531 66.3125 C 49.121094 66.390625 49.039062 66.179688 49.039062 64.925781 C 49.039062 63.78125 48.960938 63.433594 48.640625 63.433594 C 48.425781 63.433594 48.242188 63.246094 48.242188 63.03125 C 48.242188 62.738281 48.5625 62.632812 49.574219 62.632812 C 50.585938 62.632812 50.90625 62.738281 50.90625 63.03125 Z M 53.171875 63.753906 L 53.652344 64.898438 L 53.945312 63.832031 C 54.34375 62.421875 55.277344 62.179688 55.542969 63.460938 C 55.835938 64.980469 55.730469 66.097656 55.304688 66.097656 C 55.089844 66.097656 54.902344 65.859375 54.902344 65.566406 C 54.902344 64.871094 54.558594 64.898438 54.238281 65.617188 C 53.839844 66.523438 53.359375 66.496094 52.933594 65.511719 L 52.558594 64.632812 L 52.53125 65.484375 C 52.503906 66.042969 52.371094 66.363281 52.132812 66.363281 C 51.890625 66.363281 51.730469 65.859375 51.625 64.710938 C 51.464844 62.847656 51.519531 62.632812 52.238281 62.632812 C 52.558594 62.632812 52.878906 63.007812 53.171875 63.753906 Z M 53.171875 63.753906 "/>
<path style=" stroke:none;fill-rule:nonzero;fill:rgb(98.431373%,98.431373%,98.431373%);fill-opacity:1;" d="M 38.378906 63.03125 C 38.378906 63.300781 38.566406 63.433594 38.859375 63.378906 C 39.417969 63.273438 39.367188 62.792969 38.804688 62.6875 C 38.539062 62.632812 38.378906 62.765625 38.378906 63.03125 Z M 38.378906 63.03125 "/>
<path style=" stroke:none;fill-rule:nonzero;fill:rgb(98.431373%,98.431373%,98.431373%);fill-opacity:1;" d="M 41.683594 63.539062 C 41.390625 64.3125 41.683594 64.898438 42.378906 64.898438 C 42.9375 64.898438 43.042969 64.765625 43.042969 64.097656 C 43.042969 63.460938 42.910156 63.273438 42.429688 63.21875 C 42.085938 63.167969 41.792969 63.300781 41.683594 63.539062 Z M 41.683594 63.539062 "/>
<path style=" stroke:none;fill-rule:nonzero;fill:rgb(98.431373%,98.431373%,98.431373%);fill-opacity:1;" d="M 57.570312 63.964844 C 57.570312 64.097656 57.703125 64.230469 57.835938 64.230469 C 57.996094 64.230469 58.101562 64.097656 58.101562 63.964844 C 58.101562 63.804688 57.996094 63.699219 57.835938 63.699219 C 57.703125 63.699219 57.570312 63.804688 57.570312 63.964844 Z M 57.570312 63.964844 "/>
<path style=" stroke:none;fill-rule:nonzero;fill:rgb(98.431373%,98.431373%,98.431373%);fill-opacity:1;" d="M 45.84375 63.832031 C 45.84375 64.046875 46.027344 64.230469 46.242188 64.230469 C 46.457031 64.230469 46.640625 64.046875 46.640625 63.832031 C 46.640625 63.621094 46.457031 63.433594 46.242188 63.433594 C 46.027344 63.433594 45.84375 63.621094 45.84375 63.832031 Z M 45.84375 63.832031 "/>
<path style=" stroke:none;fill-rule:nonzero;fill:rgb(98.431373%,98.431373%,98.431373%);fill-opacity:1;" d="M 24.039062 65.484375 C 23.613281 65.644531 22.921875 66.976562 22.921875 67.671875 C 22.921875 68.308594 23.746094 68.84375 24.359375 68.601562 C 25 68.363281 24.867188 67.882812 24.226562 68.042969 C 23.480469 68.230469 23.320312 67.671875 23.855469 66.65625 C 24.359375 65.644531 24.707031 65.617188 25.105469 66.550781 C 25.398438 67.269531 25.425781 67.296875 25.53125 66.683594 C 25.691406 65.671875 25 65.085938 24.039062 65.484375 Z M 24.039062 65.484375 "/>
<path style=" stroke:none;fill-rule:nonzero;fill:rgb(98.431373%,98.431373%,98.431373%);fill-opacity:1;" d="M 73.855469 66.285156 L 73.292969 66.765625 L 74.09375 68.148438 L 74.894531 69.535156 L 75.691406 69.082031 C 76.8125 68.445312 76.8125 67.910156 75.667969 68.496094 C 75.265625 68.738281 75.105469 68.683594 74.972656 68.335938 C 74.867188 68.070312 74.921875 67.832031 75.105469 67.75 C 75.292969 67.695312 75.425781 67.539062 75.425781 67.378906 C 75.425781 67.242188 75.1875 67.191406 74.921875 67.296875 C 74.226562 67.511719 73.878906 66.898438 74.441406 66.496094 C 74.707031 66.3125 74.894531 66.097656 74.894531 65.992188 C 74.894531 65.699219 74.441406 65.832031 73.855469 66.285156 Z M 73.855469 66.285156 "/>
<path style=" stroke:none;fill-rule:nonzero;fill:rgb(98.431373%,98.431373%,98.431373%);fill-opacity:1;" d="M 25.878906 67.589844 C 24.867188 68.871094 25.398438 70.335938 26.757812 69.988281 C 27.453125 69.828125 28.066406 68.601562 27.933594 67.644531 C 27.796875 66.710938 26.597656 66.65625 25.878906 67.589844 Z M 27.453125 67.910156 C 27.453125 68.46875 26.730469 69.5625 26.359375 69.5625 C 25.878906 69.5625 25.828125 68.789062 26.253906 68.125 C 26.785156 67.324219 27.453125 67.21875 27.453125 67.910156 Z M 27.453125 67.910156 "/>
<path style=" stroke:none;fill-rule:nonzero;fill:rgb(98.431373%,98.431373%,98.431373%);fill-opacity:1;" d="M 71.667969 67.511719 C 70.867188 68.015625 70.816406 68.097656 71.320312 68.175781 C 71.667969 68.230469 72.121094 68.710938 72.496094 69.457031 C 72.867188 70.148438 73.214844 70.550781 73.347656 70.414062 C 73.507812 70.257812 73.375 69.777344 73.054688 69.191406 C 72.414062 68.070312 72.363281 67.511719 72.816406 67.378906 C 73.027344 67.296875 73.027344 67.191406 72.867188 67.085938 C 72.707031 67.003906 72.175781 67.191406 71.667969 67.511719 Z M 71.667969 67.511719 "/>
<path style=" stroke:none;fill-rule:nonzero;fill:rgb(98.431373%,98.431373%,98.431373%);fill-opacity:1;" d="M 76.917969 67.671875 C 76.8125 67.804688 76.867188 67.992188 77 68.070312 C 77.132812 68.175781 77.320312 68.125 77.398438 67.992188 C 77.503906 67.855469 77.453125 67.671875 77.320312 67.589844 C 77.183594 67.484375 77 67.539062 76.917969 67.671875 Z M 76.917969 67.671875 "/>
<path style=" stroke:none;fill-rule:nonzero;fill:rgb(98.431373%,98.431373%,98.431373%);fill-opacity:1;" d="M 28.359375 69.324219 C 27.933594 70.175781 27.773438 70.789062 27.933594 70.949219 C 28.089844 71.109375 28.304688 70.867188 28.542969 70.308594 L 28.917969 69.429688 L 29.050781 70.46875 C 29.132812 71.054688 29.316406 71.5625 29.449219 71.613281 C 29.609375 71.667969 30.0625 71.027344 30.464844 70.230469 C 30.996094 69.136719 31.078125 68.761719 30.808594 68.761719 C 30.597656 68.761719 30.277344 69.164062 30.089844 69.617188 L 29.742188 70.496094 L 29.636719 69.214844 C 29.585938 68.523438 29.449219 67.964844 29.316406 67.964844 C 29.183594 67.964844 28.757812 68.578125 28.359375 69.324219 Z M 28.359375 69.324219 "/>
<path style=" stroke:none;fill-rule:nonzero;fill:rgb(98.431373%,98.431373%,98.431373%);fill-opacity:1;" d="M 69.507812 68.578125 L 68.761719 68.898438 L 69.429688 70.28125 C 70.097656 71.773438 70.46875 71.960938 71.320312 71.269531 C 71.800781 70.867188 71.800781 70.867188 71.136719 71.003906 C 70.335938 71.160156 69.804688 70.46875 70.496094 70.203125 C 71.082031 69.960938 70.976562 69.507812 70.390625 69.695312 C 69.589844 69.9375 69.457031 69.351562 70.148438 68.761719 C 70.84375 68.175781 70.574219 68.097656 69.507812 68.578125 Z M 69.507812 68.578125 "/>
<path style=" stroke:none;fill-rule:nonzero;fill:rgb(98.431373%,98.431373%,98.431373%);fill-opacity:1;" d="M 31.316406 70.015625 C 30.703125 71.507812 30.570312 72.148438 30.890625 72.335938 C 31.050781 72.441406 31.183594 72.414062 31.183594 72.253906 C 31.183594 72.121094 31.316406 71.667969 31.503906 71.242188 L 31.824219 70.496094 L 31.957031 71.667969 C 32.167969 73.242188 32.621094 73.320312 33.128906 71.910156 C 33.34375 71.269531 33.609375 70.550781 33.714844 70.28125 C 33.820312 70.015625 33.796875 69.828125 33.609375 69.828125 C 33.421875 69.828125 33.128906 70.203125 32.941406 70.683594 L 32.570312 71.507812 L 32.382812 70.414062 C 32.144531 68.921875 31.824219 68.789062 31.316406 70.015625 Z M 31.316406 70.015625 "/>
<path style=" stroke:none;fill-rule:nonzero;fill:rgb(98.431373%,98.431373%,98.431373%);fill-opacity:1;" d="M 67.164062 69.617188 C 66.816406 69.75 66.472656 69.882812 66.445312 69.9375 C 66.257812 70.121094 67.484375 73.027344 67.75 73.027344 C 67.910156 73.027344 67.964844 72.761719 67.855469 72.414062 C 67.75 72.015625 67.882812 71.695312 68.285156 71.402344 C 68.683594 71.082031 68.789062 70.789062 68.683594 70.28125 C 68.46875 69.484375 68.042969 69.296875 67.164062 69.617188 Z M 68.015625 70.949219 C 67.589844 71.375 67.03125 70.84375 67.269531 70.203125 C 67.429688 69.777344 67.484375 69.777344 67.882812 70.175781 C 68.230469 70.523438 68.285156 70.683594 68.015625 70.949219 Z M 68.015625 70.949219 "/>
<path style=" stroke:none;fill-rule:nonzero;fill:rgb(98.431373%,98.431373%,98.431373%);fill-opacity:1;" d="M 33.929688 71.722656 L 33.421875 73.269531 L 34.195312 73.5625 C 35.15625 73.878906 35.179688 73.878906 35.179688 73.585938 C 35.179688 73.453125 34.941406 73.269531 34.675781 73.160156 C 33.980469 72.949219 34.25 72.121094 34.941406 72.308594 C 35.527344 72.46875 35.632812 72.015625 35.046875 71.800781 C 34.835938 71.695312 34.648438 71.457031 34.648438 71.242188 C 34.648438 70.921875 34.835938 70.867188 35.449219 70.976562 C 35.902344 71.082031 36.246094 71.027344 36.246094 70.894531 C 36.246094 70.734375 36.21875 70.628906 36.167969 70.628906 C 36.140625 70.628906 35.742188 70.523438 35.289062 70.390625 L 34.433594 70.148438 Z M 33.929688 71.722656 "/>
<path style=" stroke:none;fill-rule:nonzero;fill:rgb(98.431373%,98.431373%,98.431373%);fill-opacity:1;" d="M 65.164062 70.414062 C 65.113281 70.601562 65.003906 71.242188 64.980469 71.828125 L 64.898438 72.894531 L 64.3125 71.882812 C 63.699219 70.867188 62.738281 70.46875 63.007812 71.347656 C 63.058594 71.613281 63.273438 72.335938 63.460938 72.949219 C 63.832031 74.28125 64.367188 74.492188 64.125 73.214844 L 63.964844 72.363281 L 64.578125 73.109375 C 65.273438 73.933594 65.566406 73.828125 65.589844 72.65625 C 65.617188 71.882812 65.644531 71.882812 65.804688 72.46875 C 65.964844 73.109375 66.632812 73.585938 66.632812 73.109375 C 66.632812 72.628906 65.777344 70.363281 65.539062 70.203125 C 65.40625 70.121094 65.246094 70.230469 65.164062 70.414062 Z M 65.164062 70.414062 "/>
<path style=" stroke:none;fill-rule:nonzero;fill:rgb(98.431373%,98.431373%,98.431373%);fill-opacity:1;" d="M 36.726562 71.347656 C 36.113281 72.042969 35.875 73.507812 36.246094 73.960938 C 36.621094 74.414062 37.738281 74.492188 37.980469 74.066406 C 38.246094 73.640625 37.898438 73.453125 37.5 73.800781 C 36.96875 74.226562 36.515625 73.613281 36.699219 72.707031 C 36.941406 71.480469 38.113281 71.003906 38.113281 72.121094 C 38.113281 72.335938 38.246094 72.496094 38.378906 72.496094 C 38.859375 72.496094 38.644531 71.722656 38.058594 71.320312 C 37.3125 70.789062 37.234375 70.789062 36.726562 71.347656 Z M 36.726562 71.347656 "/>
<path style=" stroke:none;fill-rule:nonzero;fill:rgb(98.431373%,98.431373%,98.431373%);fill-opacity:1;" d="M 39.179688 71.722656 C 39.179688 71.828125 39.3125 72.015625 39.472656 72.09375 C 39.632812 72.226562 39.683594 72.816406 39.550781 73.773438 C 39.417969 74.945312 39.445312 75.214844 39.710938 75 C 39.871094 74.839844 40.085938 74.199219 40.164062 73.585938 C 40.273438 72.761719 40.433594 72.496094 40.804688 72.496094 C 41.683594 72.496094 41.339844 72.09375 40.246094 71.773438 C 39.660156 71.640625 39.179688 71.589844 39.179688 71.722656 Z M 39.179688 71.722656 "/>
<path style=" stroke:none;fill-rule:nonzero;fill:rgb(98.431373%,98.431373%,98.431373%);fill-opacity:1;" d="M 60.554688 71.75 C 60.074219 72.226562 60.179688 73.402344 60.792969 74.199219 C 61.433594 75.027344 61.671875 75.054688 62.339844 74.386719 C 62.738281 73.988281 62.820312 73.695312 62.632812 72.949219 C 62.527344 72.441406 62.367188 71.882812 62.261719 71.722656 C 62.019531 71.320312 60.953125 71.347656 60.554688 71.75 Z M 61.992188 72.601562 C 62.179688 73.402344 62.046875 74.226562 61.699219 74.226562 C 61.328125 74.226562 60.6875 72.789062 60.875 72.335938 C 61.113281 71.75 61.808594 71.910156 61.992188 72.601562 Z M 61.992188 72.601562 "/>
<path style=" stroke:none;fill-rule:nonzero;fill:rgb(98.431373%,98.431373%,98.431373%);fill-opacity:1;" d="M 57.890625 72.28125 C 57.410156 72.761719 57.515625 74.226562 58.074219 74.921875 C 58.503906 75.480469 58.660156 75.507812 59.273438 75.214844 C 59.648438 75.054688 59.96875 74.734375 59.96875 74.492188 C 59.96875 73.960938 59.703125 73.988281 59.273438 74.546875 C 58.847656 75.160156 58.449219 74.785156 58.207031 73.613281 C 58.074219 72.949219 58.128906 72.734375 58.503906 72.601562 C 58.769531 72.496094 59.0625 72.574219 59.167969 72.789062 C 59.300781 72.972656 59.488281 73.054688 59.59375 72.949219 C 59.863281 72.679688 59.167969 71.960938 58.660156 71.960938 C 58.421875 71.960938 58.074219 72.09375 57.890625 72.28125 Z M 57.890625 72.28125 "/>
<path style=" stroke:none;fill-rule:nonzero;fill:rgb(98.431373%,98.431373%,98.431373%);fill-opacity:1;" d="M 44.429688 72.679688 C 44.164062 73.132812 44.136719 75.558594 44.375 75.691406 C 44.535156 75.773438 44.667969 75.558594 44.722656 75.238281 C 44.777344 74.839844 45.015625 74.625 45.523438 74.574219 C 46.855469 74.414062 46.535156 72.496094 45.148438 72.496094 C 44.828125 72.496094 44.484375 72.574219 44.429688 72.679688 Z M 45.789062 73.640625 C 45.84375 73.960938 45.707031 74.09375 45.335938 74.09375 C 45.015625 74.09375 44.777344 73.933594 44.777344 73.746094 C 44.777344 72.921875 45.628906 72.839844 45.789062 73.640625 Z M 45.789062 73.640625 "/>
<path style=" stroke:none;fill-rule:nonzero;fill:rgb(98.431373%,98.431373%,98.431373%);fill-opacity:1;" d="M 53.570312 73.347656 L 53.25 74.226562 L 52.984375 73.480469 C 52.664062 72.628906 52.132812 72.496094 52.371094 73.347656 C 52.480469 73.695312 52.664062 74.066406 52.796875 74.199219 C 52.933594 74.359375 53.039062 74.8125 53.039062 75.214844 C 53.039062 75.691406 53.171875 75.960938 53.410156 75.960938 C 53.652344 75.960938 53.8125 75.691406 53.785156 75.214844 C 53.785156 74.8125 53.917969 74.148438 54.078125 73.746094 C 54.425781 72.839844 54.449219 72.496094 54.132812 72.496094 C 53.996094 72.496094 53.757812 72.894531 53.570312 73.347656 Z M 53.570312 73.347656 "/>
<path style=" stroke:none;fill-rule:nonzero;fill:rgb(98.431373%,98.431373%,98.431373%);fill-opacity:1;" d="M 47.066406 73.347656 C 46.988281 73.695312 46.910156 74.386719 46.910156 74.921875 C 46.910156 75.878906 47.28125 76.199219 48.453125 76.226562 C 49.015625 76.226562 48.800781 75.746094 48.1875 75.640625 C 47.628906 75.558594 47.574219 75.453125 47.65625 74.148438 C 47.761719 72.734375 47.386719 72.226562 47.066406 73.347656 Z M 47.066406 73.347656 "/>
<path style=" stroke:none;fill-rule:nonzero;fill:rgb(98.431373%,98.431373%,98.431373%);fill-opacity:1;" d="M 50.292969 72.949219 C 50.238281 73.082031 49.972656 73.800781 49.707031 74.574219 C 49.253906 75.960938 49.359375 76.8125 49.867188 75.878906 C 50.1875 75.320312 51.171875 75.265625 51.171875 75.828125 C 51.171875 76.039062 51.304688 76.226562 51.4375 76.226562 C 51.8125 76.226562 51.785156 75.828125 51.253906 74.171875 C 50.828125 72.839844 50.558594 72.496094 50.292969 72.949219 Z M 50.90625 74.679688 C 50.90625 74.8125 50.746094 74.894531 50.53125 74.894531 C 50.292969 74.894531 50.214844 74.707031 50.292969 74.332031 C 50.398438 73.90625 50.507812 73.878906 50.667969 74.148438 C 50.800781 74.332031 50.90625 74.574219 50.90625 74.679688 Z M 50.90625 74.679688 "/>
<path style=" stroke:none;fill-rule:nonzero;fill:rgb(98.431373%,98.431373%,98.431373%);fill-opacity:1;" d="M 41.445312 75.160156 C 41.550781 75.320312 41.738281 75.375 41.871094 75.292969 C 42.242188 75.054688 42.164062 74.894531 41.683594 74.894531 C 41.472656 74.894531 41.363281 75.027344 41.445312 75.160156 Z M 41.445312 75.160156 "/>
<path style=" stroke:none;fill-rule:nonzero;fill:rgb(98.431373%,98.431373%,98.431373%);fill-opacity:1;" d="M 55.332031 75.398438 C 55.222656 75.53125 55.277344 75.71875 55.410156 75.800781 C 55.542969 75.90625 55.730469 75.851562 55.808594 75.71875 C 55.917969 75.585938 55.863281 75.398438 55.730469 75.320312 C 55.597656 75.214844 55.410156 75.265625 55.332031 75.398438 Z M 55.332031 75.398438 "/>
</g>
</svg>
