<?xml version="1.0" standalone="no"?>
<!DOCTYPE svg PUBLIC "-//W3C//DTD SVG 20010904//EN"
 "http://www.w3.org/TR/2001/REC-SVG-20010904/DTD/svg10.dtd">
<svg version="1.0" xmlns="http://www.w3.org/2000/svg"
 width="375.000000pt" height="375.000000pt" viewBox="0 0 375.000000 375.000000"
 preserveAspectRatio="xMidYMid meet">

<g transform="translate(0.000000,375.000000) scale(0.100000,-0.100000)"
fill="#fbfbfb" stroke="none">
<path d="M1761 3014 c-81 -72 -104 -168 -77 -322 9 -50 16 -103 16 -117 0 -38
-42 -75 -85 -75 -44 0 -72 27 -80 77 -4 21 -8 45 -9 53 -2 8 -13 -7 -26 -35
-32 -68 -40 -211 -16 -283 34 -100 116 -183 160 -160 12 6 22 12 24 13 1 1 -9
25 -23 53 -14 29 -28 75 -31 104 -4 53 -4 53 10 22 8 -17 30 -44 47 -59 45
-37 92 -30 136 21 49 56 57 177 18 271 -21 49 -9 55 27 13 50 -59 70 -110 90
-225 18 -109 31 -135 66 -135 22 0 56 20 79 48 l23 27 0 -30 c0 -17 -9 -48
-19 -68 l-19 -37 29 -16 c37 -18 52 -11 111 55 69 77 89 188 55 301 l-14 45
-8 -45 c-19 -113 -84 -150 -152 -87 -29 26 -29 65 -3 149 27 85 26 160 -2 209
-23 41 -38 37 -38 -8 0 -13 -13 -37 -28 -54 -79 -88 -220 -14 -237 125 -7 52
7 152 26 189 16 28 -7 20 -50 -19z"/>
<path d="M1735 2151 c-120 -43 -196 -101 -256 -194 -52 -80 -69 -146 -68 -259
1 -110 8 -142 33 -146 15 -3 17 0 11 14 -16 40 -17 207 -2 257 17 52 76 157
89 157 4 0 8 -24 8 -52 0 -100 47 -244 108 -332 l26 -38 -21 -18 c-24 -19 -21
-30 8 -30 29 0 118 78 167 147 l47 65 50 -5 c93 -10 155 -28 155 -44 0 -18
-53 -108 -83 -140 l-20 -23 25 0 c27 0 53 32 97 118 l22 43 49 -27 c27 -15 66
-42 86 -61 21 -18 43 -32 49 -29 32 12 35 208 4 298 -66 196 -239 319 -448
318 -57 -1 -103 -7 -136 -19z m227 -22 c110 -23 208 -87 269 -176 17 -24 29
-47 26 -49 -2 -3 -20 4 -38 15 -73 43 -190 73 -301 79 -108 5 -108 5 -109 31
-2 36 2 94 8 104 6 11 84 9 145 -4z m-192 -56 c1 -84 19 -178 51 -261 l31 -82
-37 -50 c-20 -27 -50 -61 -67 -75 l-32 -27 -18 24 c-30 38 -78 140 -93 198 -8
30 -18 92 -21 137 -7 80 -6 82 21 107 31 29 121 75 148 76 14 0 17 -9 17 -47z
m285 -129 c63 -16 184 -71 224 -103 23 -17 25 -28 29 -116 3 -57 0 -101 -5
-106 -7 -7 -30 2 -68 27 -81 51 -157 80 -263 100 -100 18 -95 14 -133 123 -27
77 -25 89 14 93 49 6 136 -2 202 -18z"/>
<path d="M2310 2158 c0 -9 -10 -24 -22 -32 -19 -14 -19 -16 -5 -22 9 -3 17
-15 17 -25 0 -21 15 -25 26 -8 3 6 14 9 23 6 13 -3 17 3 17 29 0 26 -4 34 -18
34 -9 0 -22 8 -27 18 -10 16 -10 16 -11 0z"/>
<path d="M1425 2150 c-3 -5 -15 -10 -26 -10 -16 0 -18 -4 -11 -16 5 -9 7 -25
4 -36 -3 -13 0 -17 11 -12 8 3 18 1 22 -5 9 -16 25 -13 25 4 0 7 8 19 18 25
16 10 16 10 0 20 -10 6 -18 18 -18 25 0 17 -16 20 -25 5z"/>
<path d="M1316 2044 c-3 -8 -20 -20 -36 -26 -29 -10 -30 -11 -15 -28 11 -12
14 -26 10 -40 -6 -20 -4 -21 23 -15 18 3 33 2 37 -4 11 -19 25 -12 25 13 0 13
7 29 16 37 14 11 13 14 -10 26 -14 8 -26 20 -26 28 0 20 -17 27 -24 9z"/>
<path d="M2420 2046 c0 -9 -14 -25 -30 -35 -27 -16 -29 -20 -15 -31 8 -7 15
-24 15 -37 0 -20 3 -24 18 -17 9 4 30 7 46 6 24 -1 27 2 22 20 -3 13 1 29 11
40 15 17 15 18 -1 18 -9 0 -28 12 -41 26 -19 21 -25 23 -25 10z"/>
<path d="M1284 1856 c-3 -9 -15 -16 -27 -16 -19 0 -19 -1 -2 -20 9 -10 15 -25
12 -33 -4 -10 4 -13 29 -13 27 1 34 5 34 22 0 11 5 25 12 32 9 9 9 12 -2 12
-7 0 -22 7 -32 16 -16 16 -18 16 -24 0z"/>
<path d="M2445 1858 c-4 -10 -17 -18 -28 -18 -16 0 -18 -3 -9 -12 7 -7 12 -21
12 -32 0 -17 6 -21 30 -21 22 0 30 5 30 17 0 9 5 20 10 23 14 8 13 25 -1 25
-7 0 -18 8 -25 18 -12 16 -13 16 -19 0z"/>
<path d="M925 1828 c4 -18 15 -59 25 -91 22 -69 27 -64 -96 -80 l-87 -12 129
-67 c71 -36 152 -75 181 -86 56 -21 64 -19 78 28 23 75 42 97 110 121 36 12
62 26 58 29 -5 3 -48 21 -98 39 -95 36 -203 87 -268 128 l-39 24 7 -33z"/>
<path d="M2715 1794 c-55 -29 -134 -65 -175 -80 -140 -51 -134 -43 -56 -73 74
-28 74 -28 111 -113 l24 -56 53 20 c55 20 310 149 306 153 -2 2 -43 8 -91 14
-48 6 -92 13 -96 15 -5 3 -1 29 9 58 24 74 33 118 23 117 -4 -1 -53 -25 -108
-55z"/>
<path d="M1302 1622 l-42 -18 33 -12 c45 -16 44 -16 56 18 12 35 10 35 -47 12z"/>
<path d="M2400 1626 c0 -7 6 -20 13 -30 11 -15 16 -16 46 -3 l34 14 -47 16
c-35 12 -46 13 -46 3z"/>
<path d="M1162 1458 c-29 -68 -52 -128 -52 -134 0 -16 224 -80 371 -106 108
-20 158 -23 394 -23 234 0 286 3 391 22 118 22 333 77 366 94 14 8 10 23 -36
134 -29 69 -55 127 -57 130 -3 2 -47 -9 -99 -25 -339 -106 -776 -105 -1134 1
-38 11 -74 23 -81 25 -7 3 -31 -40 -63 -118z m1285 -20 c-7 -4 -20 -8 -29 -8
-10 0 -18 -5 -18 -11 0 -7 12 -10 30 -7 38 6 41 -18 4 -32 -33 -13 -23 -28 16
-22 23 3 30 0 30 -12 0 -9 -6 -16 -14 -16 -7 0 -27 -3 -43 -6 -29 -6 -31 -4
-42 43 -7 26 -14 56 -17 65 -4 13 5 19 38 25 43 9 71 -3 45 -19z m-1083 16 c9
-3 16 -15 16 -25 0 -16 -3 -18 -19 -9 -36 19 -46 10 -18 -15 32 -31 35 -60 6
-75 -26 -14 -79 4 -79 27 0 10 6 13 15 9 8 -3 22 -9 30 -12 23 -9 18 19 -5 34
-19 12 -27 51 -13 65 8 9 46 9 67 1z m134 -36 c15 -13 16 -50 0 -66 -7 -7 -24
-12 -39 -12 -18 0 -28 -6 -32 -20 -3 -14 -10 -18 -22 -14 -9 4 -14 13 -11 20
3 8 8 37 12 65 l7 51 36 -7 c20 -4 42 -11 49 -17z m842 7 c0 -8 -7 -15 -15
-15 -16 0 -15 -33 2 -92 3 -13 -1 -18 -15 -18 -16 0 -21 9 -26 50 -5 41 -10
50 -26 50 -34 0 -23 28 13 33 62 7 67 7 67 -8z m-697 -37 c21 -25 21 -40 2
-78 -13 -26 -21 -30 -55 -30 -49 0 -76 32 -65 80 13 59 78 75 118 28z m570
-32 c25 -47 31 -66 21 -70 -7 -3 -18 2 -24 10 -18 21 -45 17 -63 -8 -24 -36
-31 -14 -17 52 10 49 26 76 47 80 1 0 17 -29 36 -64z m-439 28 c19 -18 20 -25
5 -57 -8 -18 -8 -30 0 -46 10 -18 9 -21 -7 -21 -10 0 -24 11 -30 25 -14 30
-32 33 -32 5 0 -11 -7 -20 -15 -20 -11 0 -15 11 -15 43 0 72 8 87 45 87 19 0
41 -7 49 -16z m136 1 c0 -8 -7 -15 -14 -15 -11 0 -16 -15 -18 -52 -2 -41 -7
-54 -20 -56 -15 -3 -18 5 -18 52 0 43 -3 56 -15 56 -8 0 -15 7 -15 15 0 11 12
15 50 15 38 0 50 -4 50 -15z m85 -27 l18 -43 11 40 c15 53 50 62 60 14 11 -57
7 -99 -9 -99 -8 0 -15 9 -15 20 0 26 -13 25 -25 -2 -15 -34 -33 -33 -49 4
l-14 33 -1 -32 c-1 -21 -6 -33 -15 -33 -9 0 -15 19 -19 62 -6 70 -4 78 23 78
12 0 24 -14 35 -42z"/>
<path d="M1440 1385 c0 -10 7 -15 18 -13 21 4 19 22 -2 26 -10 2 -16 -3 -16
-13z"/>
<path d="M1564 1366 c-11 -29 0 -51 26 -51 21 0 25 5 25 30 0 24 -5 31 -23 33
-13 2 -24 -3 -28 -12z"/>
<path d="M2160 1350 c0 -5 5 -10 10 -10 6 0 10 5 10 10 0 6 -4 10 -10 10 -5 0
-10 -4 -10 -10z"/>
<path d="M1720 1355 c0 -8 7 -15 15 -15 8 0 15 7 15 15 0 8 -7 15 -15 15 -8 0
-15 -7 -15 -15z"/>
<path d="M902 1293 c-16 -6 -42 -56 -42 -82 0 -24 31 -44 54 -35 24 9 19 27
-5 21 -28 -7 -34 14 -14 52 19 38 32 39 47 4 11 -27 12 -28 16 -5 6 38 -20 60
-56 45z"/>
<path d="M2771 1263 l-21 -18 30 -52 30 -52 30 17 c42 24 42 44 -1 22 -15 -9
-21 -7 -26 6 -4 10 -2 19 5 22 7 2 12 8 12 14 0 5 -9 7 -19 3 -26 -8 -39 15
-18 30 10 7 17 15 17 19 0 11 -17 6 -39 -11z"/>
<path d="M971 1214 c-38 -48 -18 -103 33 -90 26 6 49 52 44 88 -5 35 -50 37
-77 2z m59 -12 c0 -21 -27 -62 -41 -62 -18 0 -20 29 -4 54 20 30 45 34 45 8z"/>
<path d="M2689 1217 c-30 -19 -32 -22 -13 -25 13 -2 30 -20 44 -48 14 -26 27
-41 32 -36 6 6 1 24 -11 46 -24 42 -26 63 -9 68 8 3 8 7 2 11 -6 3 -26 -4 -45
-16z"/>
<path d="M2886 1211 c-4 -5 -2 -12 3 -15 5 -4 12 -2 15 3 4 5 2 12 -3 15 -5 4
-12 2 -15 -3z"/>
<path d="M1064 1149 c-16 -32 -22 -55 -16 -61 6 -6 14 3 23 24 l14 33 5 -39
c3 -22 10 -41 15 -43 6 -2 23 22 38 52 20 41 23 55 13 55 -8 0 -20 -15 -27
-32 l-13 -33 -4 48 c-2 26 -7 47 -12 47 -5 0 -21 -23 -36 -51z"/>
<path d="M2608 1177 l-28 -12 25 -52 c25 -56 39 -63 71 -37 18 15 18 15 -7 10
-30 -6 -50 20 -24 30 22 9 18 26 -4 19 -30 -9 -35 13 -9 35 26 22 16 25 -24 7z"/>
<path d="M1175 1123 c-23 -56 -28 -80 -16 -87 6 -4 11 -3 11 3 0 5 5 22 12 38
l12 28 5 -44 c8 -59 25 -62 44 -9 8 24 18 51 22 61 4 10 3 17 -4 17 -7 0 -18
-14 -25 -32 l-14 -31 -7 41 c-9 56 -21 61 -40 15z"/>
<path d="M2520 1138 c-13 -5 -26 -10 -27 -12 -7 -7 39 -116 49 -116 6 0 8 10
4 23 -4 15 1 27 16 38 15 12 19 23 15 42 -8 30 -24 37 -57 25z m32 -50 c-16
-16 -37 4 -28 28 6 16 8 16 23 1 13 -13 15 -19 5 -29z"/>
<path d="M1273 1059 l-19 -58 29 -11 c36 -12 37 -12 37 -1 0 5 -9 12 -19 16
-26 8 -16 39 10 32 22 -6 26 11 4 19 -8 4 -15 13 -15 21 0 12 7 14 30 10 17
-4 30 -2 30 3 0 6 -1 10 -3 10 -1 0 -16 4 -33 9 l-32 9 -19 -59z"/>
<path d="M2445 1108 c-2 -7 -6 -31 -7 -53 l-3 -40 -22 38 c-23 38 -59 53 -49
20 2 -10 10 -37 17 -60 14 -50 34 -58 25 -10 l-6 32 23 -28 c26 -31 37 -27 38
17 1 29 2 29 8 7 6 -24 31 -42 31 -24 0 18 -32 103 -41 109 -5 3 -11 -1 -14
-8z"/>
<path d="M1378 1073 c-23 -26 -32 -81 -18 -98 14 -17 56 -20 65 -4 10 16 -3
23 -18 10 -20 -16 -37 7 -30 41 9 46 53 64 53 22 0 -8 5 -14 10 -14 18 0 10
29 -12 44 -28 20 -31 20 -50 -1z"/>
<path d="M1470 1059 c0 -4 5 -11 11 -14 6 -5 8 -27 3 -63 -5 -44 -4 -54 6 -46
6 6 14 30 17 53 4 31 10 41 24 41 33 0 20 15 -21 27 -22 5 -40 7 -40 2z"/>
<path d="M2272 1058 c-18 -18 -14 -62 9 -92 24 -31 33 -32 58 -7 15 15 18 26
11 54 -4 19 -10 40 -14 46 -9 15 -49 14 -64 -1z m54 -32 c7 -30 2 -61 -11 -61
-14 0 -38 54 -31 71 9 22 35 16 42 -10z"/>
<path d="M2172 1038 c-18 -18 -14 -73 7 -99 16 -21 22 -22 45 -11 14 6 26 18
26 27 0 20 -10 19 -26 -2 -16 -23 -31 -9 -40 35 -5 25 -3 33 11 38 10 4 21 1
25 -7 5 -7 12 -10 16 -6 10 10 -16 37 -35 37 -9 0 -22 -5 -29 -12z"/>
<path d="M1667 1023 c-10 -17 -11 -108 -2 -113 6 -3 11 5 13 17 2 15 11 23 30
25 50 6 38 78 -14 78 -12 0 -25 -3 -27 -7z m51 -36 c2 -12 -3 -17 -17 -17 -12
0 -21 6 -21 13 0 31 32 34 38 4z"/>
<path d="M2010 998 l-12 -33 -10 28 c-12 32 -32 37 -23 5 4 -13 11 -27 16 -32
5 -6 9 -23 9 -38 0 -18 5 -28 14 -28 9 0 15 10 14 28 0 15 5 40 11 55 13 34
14 47 2 47 -5 0 -14 -15 -21 -32z"/>
<path d="M1766 998 c-3 -13 -6 -39 -6 -59 0 -36 14 -48 58 -49 21 0 13 18 -10
22 -21 3 -23 7 -20 56 4 53 -10 72 -22 30z"/>
<path d="M1887 1013 c-2 -5 -12 -32 -22 -61 -17 -52 -13 -84 6 -49 12 21 49
23 49 2 0 -8 5 -15 10 -15 14 0 13 15 -7 77 -16 50 -26 63 -36 46z m23 -65 c0
-5 -6 -8 -14 -8 -9 0 -12 7 -9 21 4 16 8 17 14 7 5 -7 9 -16 9 -20z"/>
<path d="M1555 930 c4 -6 11 -8 16 -5 14 9 11 15 -7 15 -8 0 -12 -5 -9 -10z"/>
<path d="M2076 921 c-4 -5 -2 -12 3 -15 5 -4 12 -2 15 3 4 5 2 12 -3 15 -5 4
-12 2 -15 -3z"/>
</g>
</svg>
